<?xml version="1.0" encoding="UTF-8" standalone="no"?>
<!DOCTYPE svg PUBLIC "-//W3C//DTD SVG 1.1//EN" "http://www.w3.org/Graphics/SVG/1.1/DTD/svg11.dtd">
<svg version="1.1" xmlns="http://www.w3.org/2000/svg" xmlns:xlink="http://www.w3.org/1999/xlink" preserveAspectRatio="xMidYMid meet" viewBox="9.9 11.200000000000001 204.20000000000002 234.7063242899478" width="200.2" height="230.71"><defs><path d="M29 195.6C27.83 194.92 22 191.52 11.5 185.4L11.2 147.6L11 109.8L19.2 114.3L27.5 118.8L27.8 147.2L28 175.5C29.68 176.46 30.61 176.99 30.8 177.1C55.2 191.1 76.2 203.3 87.5 209.9C95.2 214.4 103.8 219.2 106.5 220.6C106.83 220.77 108.5 221.64 111.5 223.2C133.7 210.36 146.03 203.23 148.5 201.8C168.9 190 187.4 179.3 189.8 178C193.5 175.9 194 175.2 194 172.1C194 169 193.5 168.2 190.2 166.4C186.6 164.4 157.3 147.6 136.5 135.5C131 132.3 125.2 128.9 123.5 128C120.2 126.1 110.5 120.5 84.5 105.5C75.2 100.1 63 93.1 57.5 90C52.1 86.8 47.4 83.8 47.3 83.3C46.9 82.1 60.3 74 62.6 74C63.3 74 68.3 76.5 73.7 79.7C79.1 82.8 90.3 89.2 98.5 94C106.8 98.7 124.3 108.9 137.5 116.5C150.7 124.1 172.5 136.7 186 144.5C187.63 145.44 195.8 150.14 210.5 158.6L210.8 172.1L211.1 185.6C206.72 188 204.29 189.33 203.8 189.6C199.8 191.8 190.4 197.2 183 201.5C168.3 210.1 122.1 236.8 115.3 240.6C113 241.9 111 243 110.8 242.9C110.6 242.9 96.1 234.5 78.5 224.4C60.9 214.2 38.6 201.2 29 195.6Z" id="d3HyW2Zr8"></path><path d="M72.5 187.8C70.37 186.56 59.7 180.36 40.5 169.2C40.32 156.48 40.22 149.41 40.2 148C40 129 40.1 126.8 41.5 127.4C42.4 127.7 46.2 129.8 50.1 132C50.56 132.27 52.86 133.64 57 136.1L57 147.8L57 159.5C59.88 161 61.48 161.83 61.8 162C64.4 163.4 76.5 170.4 88.7 177.4C90.19 178.25 97.62 182.52 111 190.2C117 186.84 120.33 184.97 121 184.6C132.1 178.2 130.5 178.2 141.3 184.8C145.9 187.6 146.8 188.6 145.8 189.5C143.1 192 113 209 111.3 209C110.3 209 108.4 208.4 107 207.6C105.6 206.9 90.1 198 72.5 187.8Z" id="cHzB6D0mr"></path><path d="M96.5 145.5C67.5 128.7 42.9 114.6 37.5 111.5C35.3 110.2 28.6 106.3 22.5 102.8C21.77 102.38 18.1 100.28 11.5 96.5L11.2 83.3L10.9 70.2C13.78 68.46 15.38 67.49 15.7 67.3C18.3 65.6 32.9 57.2 48 48.5C63.1 39.8 80.2 29.9 86 26.5C91.8 23.1 99.9 18.5 104 16.2C104.5 15.93 107 14.6 111.5 12.2C117.2 15.5 120.37 17.33 121 17.7C126.2 20.7 139.5 28.4 150.5 34.8C161.5 41.2 173.3 48 176.7 49.9C180.1 51.9 189.2 57.1 196.9 61.5C197.84 62.03 202.54 64.7 211 69.5C211 87.08 211 96.85 211 98.8C211 121.8 210.7 128.1 209.8 127.8C209.1 127.6 205.2 125.7 201.3 123.5C200.81 123.23 198.38 121.9 194 119.5L194 99.5L194 79.5C181.52 72.36 174.59 68.39 173.2 67.6C161.8 61 143.2 50.3 131.8 43.7C130.41 42.91 123.48 38.94 111 31.8C105.78 34.8 102.88 36.47 102.3 36.8C76.5 51.5 36 75 32.2 77.3C28.9 79.5 28 80.6 28 82.9C28 84.5 28.6 86.2 29.3 86.8C29.9 87.3 40.6 93.6 53 100.8C65.4 107.9 85.4 119.4 97.5 126.4C149.2 156.4 166.8 166.5 171.2 168.9C173.8 170.3 176 171.7 176 172C176 172.3 174.8 173.2 173.2 174C171.7 174.9 168 177 165 178.7C164.63 178.91 162.8 179.94 159.5 181.8L140 170.6C119.8 158.93 105.3 150.57 96.5 145.5Z" id="c6a98qKN3j"></path><path d="M165.2 99.3C164.9 96.2 164 95.5 152.7 88.9C146 85 138 80.3 135 78.6C132 76.8 125.3 72.9 120.3 70C119.68 69.65 116.58 67.92 111 64.8L101.1 70.5L91.1 76.2C87.32 74.04 85.22 72.84 84.8 72.6C73.2 66.1 73.1 67.2 86.6 59.3C93.1 55.4 101.4 50.7 105 48.8C105.43 48.56 107.6 47.36 111.5 45.2C131 56.54 141.83 62.84 144 64.1C161.9 74.4 177.7 83.6 179.3 84.5C179.48 84.61 180.38 85.14 182 86.1C182 93.9 182 98.23 182 99.1C182 106.2 181.9 112 181.8 112C181.6 112 177.9 109.9 173.5 107.2C166.4 103 165.5 102.1 165.2 99.3Z" id="hjbPvB0uZ"></path></defs><g><g><use xlink:href="#d3HyW2Zr8" opacity="1" fill="#ffffff" fill-opacity="1"></use><g><use xlink:href="#d3HyW2Zr8" opacity="1" fill-opacity="0" stroke="#000000" stroke-width="1" stroke-opacity="0"></use></g></g><g><use xlink:href="#cHzB6D0mr" opacity="1" fill="#ffffff" fill-opacity="1"></use><g><use xlink:href="#cHzB6D0mr" opacity="1" fill-opacity="0" stroke="#000000" stroke-width="1" stroke-opacity="0"></use></g></g><g><use xlink:href="#c6a98qKN3j" opacity="1" fill="#ffffff" fill-opacity="1"></use><g><use xlink:href="#c6a98qKN3j" opacity="1" fill-opacity="0" stroke="#000000" stroke-width="1" stroke-opacity="0"></use></g></g><g><use xlink:href="#hjbPvB0uZ" opacity="1" fill="#ffffff" fill-opacity="1"></use><g><use xlink:href="#hjbPvB0uZ" opacity="1" fill-opacity="0" stroke="#000000" stroke-width="1" stroke-opacity="0"></use></g></g></g></svg>